M48
; DRILL file {KiCad 9.0.4} date 2026-02-09T19:22:58+0100
; FORMAT={-:-/ absolute / metric / decimal}
; #@! TF.CreationDate,2026-02-09T19:22:58+01:00
; #@! TF.GenerationSoftware,Kicad,Pcbnew,9.0.4
; #@! TF.FileFunction,Plated,1,2,PTH
FMAT,2
METRIC
; #@! TA.AperFunction,Plated,PTH,ViaDrill
T1C0.300
; #@! TA.AperFunction,Plated,PTH,ComponentDrill
T2C1.000
; #@! TA.AperFunction,Plated,PTH,ComponentDrill
T3C1.039
; #@! TA.AperFunction,Plated,PTH,ComponentDrill
T4C1.050
; #@! TA.AperFunction,Plated,PTH,ComponentDrill
T5C1.400
; #@! TA.AperFunction,Plated,PTH,ComponentDrill
T6C1.850
%
G90
G05
T1
X146.4Y-84.8
X147.63Y-51.781
X147.763Y-50.519
X150.22Y-88.398
X150.251Y-85.866
X151.913Y-88.553
X152.037Y-86.451
X153.032Y-94.489
X153.9Y-86.777
X154.276Y-93.105
X154.524Y-87.277
X155.506Y-88.356
X155.75Y-86.9
X156.303Y-84.276
X157.023Y-88.916
X157.049Y-92.902
X157.15Y-80.5
X157.444Y-89.659
X157.593Y-84.31
X157.65Y-94.55
X157.828Y-88.023
X158.126Y-77.75
X158.177Y-86.171
X158.392Y-87.015
X158.774Y-88.774
X159.27Y-92.53
X159.3Y-80.6
X159.326Y-77.8
X159.711Y-52.552
X161.1Y-86.65
X161.15Y-80.55
X161.3Y-54.759
X161.35Y-76.1
X161.79Y-87.331
X161.87Y-86.03
X162.375Y-88.4
X164.608Y-78.208
X164.68Y-90.488
X165.534Y-85.125
X165.65Y-93.4
X165.684Y-60.716
X165.916Y-88.637
X166.3Y-83.5
X166.3Y-87.0
X166.45Y-82.251
X167.15Y-91.4
X168.292Y-83.201
X168.913Y-77.013
X169.15Y-70.636
X169.186Y-72.85
X169.267Y-74.467
X169.287Y-78.337
X169.324Y-82.526
X170.935Y-71.837
X170.962Y-73.513
X171.733Y-88.7
X172.356Y-72.037
X172.885Y-70.537
X172.973Y-69.742
X177.3Y-87.5
X177.3Y-89.414
X177.9Y-58.45
X179.35Y-62.6
X179.424Y-73.6
X180.172Y-61.0
X183.6Y-86.87
X183.95Y-73.0
X184.15Y-91.9
X185.8Y-84.33
X186.15Y-89.414
X186.546Y-90.653
X186.9Y-97.55
X187.15Y-98.75
X190.6Y-91.05
T2
X167.8Y-81.85
X167.8Y-84.35
X167.95Y-87.65
X167.95Y-90.15
X184.05Y-95.65
X184.05Y-98.15
X189.05Y-46.83
X189.05Y-49.37
X189.05Y-51.91
X189.05Y-54.45
X189.05Y-56.99
X189.05Y-59.53
X189.05Y-62.07
X189.05Y-64.61
X189.05Y-67.15
X189.05Y-69.69
X189.05Y-72.23
X189.05Y-74.77
X189.05Y-77.31
X189.05Y-79.85
X189.05Y-82.39
X189.05Y-84.93
X189.05Y-87.47
X189.05Y-90.01
X189.05Y-92.55
X189.05Y-95.09
X189.05Y-97.63
X189.05Y-100.17
X211.91Y-46.83
X211.91Y-49.37
X211.91Y-51.91
X211.91Y-54.45
X211.91Y-56.99
X211.91Y-59.53
X211.91Y-62.07
X211.91Y-64.61
X211.91Y-67.15
X211.91Y-69.69
X211.91Y-72.23
X211.91Y-74.77
X211.91Y-77.31
X211.91Y-79.85
X211.91Y-82.39
X211.91Y-84.93
X211.91Y-87.47
X211.91Y-90.01
X211.91Y-92.55
X211.91Y-95.09
X211.91Y-97.63
X211.91Y-100.17
T3
X149.1Y-63.0
X159.1Y-63.0
X169.1Y-63.0
T4
X183.2Y-79.95
X219.75Y-100.35
T5
X180.65Y-104.5
X180.65Y-109.58
T6
X157.8Y-38.68
X157.8Y-44.55
X163.67Y-38.68
X163.67Y-44.55
X168.329Y-38.755
X168.329Y-44.625
X174.199Y-38.755
X174.199Y-44.625
X178.679Y-38.755
X178.679Y-44.625
X184.549Y-38.755
X184.549Y-44.625
M30
